<?xml version="1.0" encoding="UTF-8"?>
<svg version="1.1" xmlns="http://www.w3.org/2000/svg" viewBox="500 1300 3100 1550">
<path d="M0 0 C68.64 0 137.28 0 208 0 C208 94.71 208 189.42 208 287 C281.59 287 355.18 287 431 287 C436.62443946 300.49865471 436.62443946 300.49865471 438.36499023 305.60253906 C438.76041016 306.75535873 439.15583008 307.90817841 439.56323242 309.09593201 C439.97420166 310.30693069 440.3851709 311.51792938 440.80859375 312.765625 C441.255967 314.07398785 441.70373103 315.38221713 442.15185547 316.69032288 C443.09631287 319.44935929 444.03848231 322.20916091 444.97872925 324.96963501 C447.19917918 331.48793103 449.43220828 338.00192259 451.66392708 344.51636696 C452.4043947 346.67817716 453.14441425 348.84014036 453.88438416 351.00212097 C457.69131606 362.12111093 461.54231524 373.22411792 465.4375 384.3125 C465.71230194 385.09523285 465.98710388 385.8779657 466.27023315 386.68441772 C467.36541384 389.80371014 468.46087822 392.92290244 469.55711365 396.04182434 C472.72024449 405.04330645 475.85960281 414.05306738 479 423.0625 C480.25244849 426.65500221 481.50506899 430.24744441 482.7578125 433.83984375 C483.08641769 434.78216354 483.41502289 435.72448334 483.75358582 436.69535828 C486.35119615 444.14293655 488.95223225 451.5893159 491.55427361 459.03534698 C493.42334622 464.38395274 495.29215633 469.73265024 497.16095352 475.08135223 C497.63721379 476.44444031 498.11348893 477.80752319 498.5897789 479.17060089 C504.6756841 496.58783665 510.74289839 514.01132222 516.7772522 531.44650269 C523.37105119 550.49704789 530.05399111 569.51424023 536.79980469 588.51147461 C543.59577225 607.65247726 550.30868439 626.82219713 557 646 C558.92419569 640.37392528 560.69331272 634.73813911 562.25 629 C562.68311476 627.41913952 563.11673788 625.83841827 563.55078125 624.2578125 C563.7823291 623.41379883 564.01387695 622.56978516 564.25244141 621.70019531 C565.04549976 618.83565402 565.85491732 615.97611619 566.66796875 613.1171875 C569.92884049 601.62965409 573.01609906 590.12130653 575.87304688 578.52661133 C578.30509017 568.68413212 581.0260855 558.93638371 583.80078125 549.18603516 C587.3557418 536.67671334 590.76164209 524.15399986 593.87304688 511.52661133 C596.30509017 501.68413212 599.0260855 491.93638371 601.80078125 482.18603516 C605.36112478 469.65777153 608.76673303 457.1173317 611.86865234 444.46728516 C613.46706585 437.99547693 615.23983369 431.60627567 617.17626953 425.22851562 C618.79065482 419.85845132 620.16938306 414.4467277 621.5 409 C622.99871308 402.86519002 624.60246353 396.79276339 626.4375 390.75 C628.51921019 383.88562652 630.29111752 376.96602048 632 370 C633.85490498 362.43909884 635.83783352 354.95834024 638.10546875 347.51171875 C640.24961237 340.36912566 641.9867673 333.13074709 643.76293945 325.88964844 C645.44008849 319.10312089 647.28090513 312.39287061 649.30761719 305.703125 C650.86434691 300.5498128 652.19702656 295.36621193 653.421875 290.125 C654 288 654 288 655 287 C657.94566834 286.90202315 660.86789765 286.87008291 663.8139801 286.87974548 C664.74996802 286.87889106 665.68595593 286.87803663 666.65030712 286.87715632 C669.81189365 286.87549865 672.97342806 286.88102755 676.13500977 286.88647461 C678.3912862 286.88675645 680.64756273 286.88659882 682.90383911 286.8860321 C689.05028605 286.88574399 695.19671367 286.89164296 701.3431561 286.89860606 C707.75871258 286.9048373 714.17426945 286.90544322 720.58982849 286.90663147 C731.36482137 286.90939118 742.13980576 286.91564672 752.91479492 286.92456055 C764.01505497 286.93373393 775.1153131 286.94081513 786.21557617 286.94506836 C787.24121507 286.94546244 787.24121507 286.94546244 788.28757394 286.94586449 C791.71765561 286.94716949 795.1477373 286.94843321 798.57781899 286.94967639 C827.05188424 286.96004989 855.52594174 286.9777431 884 287 C883.68679342 288.43791327 883.37185046 289.87544839 883.05617809 291.31282234 C882.79338268 292.51367381 882.79338268 292.51367381 882.52527827 293.73878491 C881.89691724 296.4437501 881.08529267 299.04053982 880.17504883 301.66357422 C879.82261108 302.68699417 879.47017334 303.71041412 879.10705566 304.7648468 C878.72754761 305.85049423 878.34803955 306.93614166 877.95703125 308.0546875 C877.55681763 309.21215988 877.156604 310.36963226 876.7442627 311.56217957 C875.66294309 314.68621868 874.57724512 317.80866597 873.48941422 320.930439 C872.3470545 324.2120781 871.21040456 327.49569436 870.07299805 330.77905273 C867.38934879 338.52193094 864.69555082 346.26125858 862 354 C861.28774214 356.04605484 860.57550113 358.09211554 859.86328125 360.13818359 C857.11874167 368.02029608 854.36945565 375.90073802 851.61538696 383.77952576 C847.2013912 396.40812297 842.81814078 409.04730023 838.4375 421.6875 C833.03612205 437.27147843 827.61158483 452.84701304 822.15447998 468.41156006 C816.89533575 483.41406452 811.68040776 498.43171722 806.47412109 513.45263672 C801.19537324 528.68207316 795.89846451 543.9050234 790.58428955 559.12213135 C785.51583849 573.63717477 780.47248331 588.16081642 775.4375 602.6875 C770.03597661 618.27142835 764.61158503 633.84701248 759.15447998 649.41156006 C753.89533575 664.41406452 748.68040776 679.43171722 743.47412109 694.45263672 C738.4985776 708.80731428 733.50887254 723.15691869 728.5 737.5 C723.1477936 752.82681336 717.81754036 768.16112569 712.5 783.5 C706.57713478 800.58498271 700.63733278 817.66390937 694.6706543 834.73364258 C691.32878038 844.29844994 688.00646279 853.86968182 684.70703125 863.44921875 C662.70804004 927.28850491 662.70804004 927.28850491 649 957 C648.55833496 957.96695801 648.11666992 958.93391602 647.66162109 959.93017578 C638.25801885 980.44369291 627.34790553 999.77272332 614.875 1018.5625 C614.46565216 1019.18158234 614.05630432 1019.80066467 613.634552 1020.43850708 C605.66319029 1032.45264937 597.05925447 1043.92009851 587.265625 1054.5234375 C585.4079748 1056.55404134 583.60758511 1058.61402674 581.8125 1060.69921875 C571.59883565 1072.39771298 560.38372815 1083.60931793 548 1093 C547.00226562 1093.79148437 546.00453125 1094.58296875 544.9765625 1095.3984375 C531.49250107 1106.0630855 517.18483568 1114.96255589 502 1123 C500.98486328 1123.53753906 500.98486328 1123.53753906 499.94921875 1124.0859375 C468.24619315 1140.71908308 433.89066239 1151.19081981 398.57714844 1156.60205078 C396.47864477 1156.92609028 394.38330739 1157.27058329 392.2890625 1157.62109375 C359.78298978 1163.01091815 326.87262003 1162 294 1162 C294 1097.65 294 1033.3 294 967 C306.21 966.34 318.42 965.68 331 965 C368.19647799 962.10446579 404.00782682 951.39359025 429.125 922.25 C434.06372019 916.16382206 438.06931971 909.77433616 442 903 C442.54140625 902.15050781 443.0828125 901.30101563 443.640625 900.42578125 C444.10984375 899.66652344 444.5790625 898.90726563 445.0625 898.125 C445.46597656 897.48820312 445.86945312 896.85140625 446.28515625 896.1953125 C448.14637102 890.47945076 445.2293675 884.49077904 443 879.2265625 C442.53934395 878.11158134 442.53934395 878.11158134 442.06938171 876.97407532 C441.05382052 874.52116521 440.02692848 872.07317032 439 869.625 C438.27504555 867.87995088 437.5508579 866.13458303 436.82739258 864.38891602 C435.31459418 860.74230314 433.79719234 857.09765848 432.27587891 853.45458984 C430.11623864 848.28206856 427.9681672 843.10482324 425.82421875 837.92578125 C423.38258004 832.02896408 420.9390685 826.13293592 418.49188232 820.23841858 C413.52262781 808.26873413 408.57117385 796.29173796 403.625 784.3125 C403.22985199 783.35552216 402.83470398 782.39854431 402.42758179 781.41256714 C400.42063008 776.55196901 398.41387741 771.69128874 396.40722656 766.83056641 C394.01949854 761.04694508 391.63097415 755.2636529 389.2421875 749.48046875 C388.65497925 748.05885437 388.65497925 748.05885437 388.0559082 746.60852051 C386.87061909 743.73900804 385.68531296 740.86950261 384.5 738 C380.12798297 727.41586339 375.75599564 716.83171494 371.38616943 706.24667358 C363.43734591 686.99228022 355.48272924 667.74036453 347.5 648.5 C339.11335255 628.28609206 330.75822923 608.05922183 322.40722656 587.83056641 C318.83447657 579.17655189 315.25991737 570.52328467 311.68548584 561.8699646 C309.70691562 557.08000735 307.72846383 552.29000119 305.75 547.5 C304.9583339 545.5833331 304.16666723 543.66666643 303.375 541.75 C260.62500006 438.25000013 260.62500006 438.25000013 259.43754578 435.37510681 C258.6457303 433.45808255 257.85391104 431.54105984 257.06208801 429.6240387 C255.08516717 424.83785607 253.10831161 420.05164651 251.1315918 415.26538086 C247.54301662 406.57648515 243.95395974 397.88778998 240.36245728 389.20010376 C238.73503016 385.26331153 237.10798352 381.32636211 235.48095703 377.3894043 C234.73390938 375.58203598 233.98669285 373.77473745 233.23925781 371.9675293 C225.11715073 352.32897338 217.06633883 332.66170089 209 313 C208.67 510.67 208.34 708.34 208 912 C139.36 912 70.72 912 0 912 C0 611.04 0 310.08 0 0 Z " fill="#140B08" transform="translate(2223,1515)"/>
<path d="M0 0 C0.82628906 0.2789209 1.65257812 0.5578418 2.50390625 0.84521484 C31.60044058 10.67234166 58.8148569 24.4540196 84 42 C85.1796714 42.8073152 86.35935895 43.61460679 87.5390625 44.421875 C96.18094809 50.40086093 104.15711702 57.01491637 112 64 C112.75659912 64.66902344 113.51319824 65.33804687 114.29272461 66.02734375 C127.39413502 77.69464801 140.41123315 89.965991 151 104 C152.01928874 105.30459369 153.04026925 106.60786653 154.0625 107.91015625 C198.94031458 165.39446739 222.92005273 235.15980663 224 308 C224.02578125 309.10907715 224.0515625 310.2181543 224.078125 311.36083984 C224.63321278 335.96857484 222.31398679 359.96414531 217 384 C216.59950439 385.85588745 216.59950439 385.85588745 216.19091797 387.74926758 C213.79872089 398.55541574 210.61149006 408.98110789 207 419.4375 C206.57731339 420.66950134 206.57731339 420.66950134 206.14608765 421.9263916 C201.03288616 436.7600031 195.15076121 451.01465911 188 465 C187.58186035 465.82258301 187.1637207 466.64516602 186.73291016 467.49267578 C177.9008166 484.63440103 166.94157256 500.87551302 155 516 C154.28714844 516.90492188 153.57429688 517.80984375 152.83984375 518.7421875 C138.54286737 536.54406638 122.25367157 554.22746555 104 568 C102.69540631 569.01928874 101.39213347 570.04026925 100.08984375 571.0625 C80.46838314 586.38091042 59.53218262 599.38194619 37 610 C36.30084473 610.3309668 35.60168945 610.66193359 34.88134766 611.00292969 C23.96851739 616.12482846 12.8630763 620.32834599 1.43725586 624.15649414 C-1.1335771 625.04622948 -3.6682243 626.01353459 -6.2109375 626.98046875 C-12.74398553 629.36744511 -19.42283752 630.97509231 -26.1875 632.5625 C-26.83050049 632.71440796 -27.47350098 632.86631592 -28.13598633 633.02282715 C-32.41974891 634.03410129 -36.70841205 635.02253162 -41 636 C-41.80131348 636.18481934 -42.60262695 636.36963867 -43.42822266 636.56005859 C-47.92498921 637.57680488 -52.43729087 638.35554407 -57 639 C-58.38590332 639.20085205 -58.38590332 639.20085205 -59.79980469 639.40576172 C-75.76742638 641.62030395 -91.52649506 642.27381171 -107.625 642.25 C-108.93522125 642.24883682 -108.93522125 642.24883682 -110.27191162 642.24765015 C-126.72155164 642.20528109 -143.23468104 641.9690211 -159.5 639.3125 C-160.5825708 639.13952393 -161.6651416 638.96654785 -162.78051758 638.78833008 C-221.22914053 629.11764039 -276.53901752 606.21575929 -322.42285156 568.30078125 C-323.97608413 567.01972504 -325.54655133 565.75965808 -327.1171875 564.5 C-335.31379781 557.80487833 -342.81628419 550.39438549 -350.3125 542.9375 C-350.82455994 542.43070709 -351.33661987 541.92391418 -351.86419678 541.40176392 C-358.71296314 534.60751414 -365.01999149 527.58734509 -371 520 C-371.82628906 518.98550781 -372.65257812 517.97101562 -373.50390625 516.92578125 C-386.23698944 500.76177242 -397.63926109 483.32702204 -407 465 C-407.44150391 464.14148437 -407.88300781 463.28296875 -408.33789062 462.3984375 C-431.63486737 416.6516468 -443.65537269 365.82265747 -443.39111328 314.57666016 C-443.37497712 310.86974497 -443.39110651 307.16391466 -443.41015625 303.45703125 C-443.42764797 283.89699189 -441.74781566 264.73129217 -437.75 245.5625 C-437.54093018 244.54575195 -437.33186035 243.52900391 -437.11645508 242.48144531 C-424.95027313 185.15738801 -397.3852031 133.21432007 -358 90 C-357.2575 89.1646875 -356.515 88.329375 -355.75 87.46875 C-348.31672966 79.10632086 -340.58632461 71.18252868 -332 64 C-331.46020508 63.54641113 -330.92041016 63.09282227 -330.36425781 62.62548828 C-256.57485931 0.85795807 -162.30340796 -26.00156715 0 0 Z " fill="#140B08" transform="translate(1718,1802)"/>
<path d="M0 0 C73.59 0 147.18 0 223 0 C223.08052313 71.37724815 223.08052313 71.37724815 223.1026001 93.47859192 C223.10338943 94.26681001 223.10417877 95.0550281 223.10499202 95.86713159 C223.1315213 122.4309645 223.15251181 148.99479879 223.16937256 175.55863953 C223.1702009 176.86033284 223.1702009 176.86033284 223.17104598 178.18832298 C223.18302101 197.05339442 223.19410125 215.91846628 223.20426132 234.78353878 C223.20925013 244.03660082 223.21443642 253.28966274 223.21972656 262.54272461 C223.2202496 263.46345567 223.22077263 264.38418673 223.22131152 265.33281873 C223.23831978 295.11081283 223.26833708 324.88877633 223.30518888 354.66675194 C223.34302817 385.29870643 223.36756692 415.93064402 223.37565996 446.56262149 C223.37681237 450.90129246 223.37811491 455.23996337 223.37950897 459.57863426 C223.37991351 460.85934978 223.37991351 460.85934978 223.38032622 462.16593833 C223.38503068 475.84247508 223.40352181 489.51895918 223.42732814 503.19547456 C223.45103263 516.98584454 223.45983341 530.77616297 223.45400551 544.56655256 C223.45125383 552.0219009 223.45475139 559.47710849 223.4768219 566.93242836 C223.58629372 605.43151231 223.12821074 642.58406382 213 680 C212.72784668 681.02125977 212.45569336 682.04251953 212.17529297 683.09472656 C202.68073186 718.33170086 187.87712367 750.73570553 166 780 C165.27635254 780.97138916 165.27635254 780.97138916 164.53808594 781.96240234 C157.78542895 790.9106946 150.27719031 798.99272345 142.375 806.9375 C141.51656494 807.80149414 140.65812988 808.66548828 139.77368164 809.55566406 C133.81889095 815.44408241 127.56735526 820.807984 121 826 C120.32517578 826.53955322 119.65035156 827.07910645 118.95507812 827.63500977 C88.84315474 851.49508596 53.65801354 867.22232151 17 878 C15.81857422 878.34756348 15.81857422 878.34756348 14.61328125 878.70214844 C-22.3403595 889.38357006 -60.03769444 892.27018375 -98.3125 892.375 C-98.99396843 892.37700661 -99.67543686 892.37901321 -100.37755585 892.38108063 C-141.7765841 892.47505857 -182.56592428 888.25217742 -222 875 C-222.8569043 874.71431152 -223.71380859 874.42862305 -224.59667969 874.13427734 C-257.61181655 862.98670012 -287.86294402 846.86331665 -315 825 C-315.95003906 824.25492188 -316.90007812 823.50984375 -317.87890625 822.7421875 C-325.62061791 816.4640328 -332.68927719 809.52203585 -339.75 802.5 C-340.23982361 802.01544342 -340.72964722 801.53088684 -341.23431396 801.03164673 C-347.950622 794.37120239 -354.15870785 787.44452807 -360 780 C-360.53270508 779.32662598 -361.06541016 778.65325195 -361.61425781 777.95947266 C-372.93832936 763.48982568 -382.89334075 748.15459046 -391.75 732.0625 C-392.52053711 730.66813721 -392.52053711 730.66813721 -393.30664062 729.24560547 C-393.77779297 728.37178223 -394.24894531 727.49795898 -394.734375 726.59765625 C-395.14913086 725.82945557 -395.56388672 725.06125488 -395.99121094 724.26977539 C-397.06491241 721.85394707 -397.57838116 719.60295065 -398 717 C-377.31341574 704.73968531 -356.55242521 692.61254594 -335.71630859 680.6081543 C-325.44491332 674.68742092 -315.20363852 668.71577622 -304.96777344 662.73388672 C-298.97891689 659.23496773 -292.98668651 655.74182936 -286.99511719 652.24755859 C-282.019094 649.34528296 -277.04383865 646.4417092 -272.0703125 643.53515625 C-260.53762214 636.7975623 -248.99203777 630.08313926 -237.41040039 623.42993164 C-232.33339644 620.51187842 -227.26997427 617.57641609 -222.2421875 614.57421875 C-221.36216064 614.05239014 -220.48213379 613.53056152 -219.57543945 612.99291992 C-217.94393356 612.02365357 -216.31714353 611.04638834 -214.69604492 610.05981445 C-212.84113072 608.96229037 -210.92476135 607.9698245 -209 607 C-204.79423225 608.40192258 -203.98930792 611.33505452 -202.0625 615.0625 C-189.00592857 639.14878108 -169.52157947 660.35225777 -142.69384766 668.71923828 C-132.25721279 671.75002229 -122.22871945 674.10566251 -111.29296875 674.16796875 C-110.57454803 674.17229416 -109.85612732 674.17661957 -109.11593628 674.18107605 C-106.80638917 674.19112406 -104.49706443 674.19127101 -102.1875 674.1875 C-101.00424637 674.18559662 -101.00424637 674.18559662 -99.79708862 674.18365479 C-72.91677542 674.10090089 -47.18043446 671.3386946 -26 653 C-25.24847656 652.35546875 -24.49695313 651.7109375 -23.72265625 651.046875 C-7.68719477 636.24491056 -2.09242523 614.24299072 -0.82893242 593.14325136 C-0.5550716 585.75337012 -0.58457906 578.36224677 -0.60127258 570.96844482 C-0.59582261 568.49279959 -0.58906671 566.01715696 -0.58113068 563.54151845 C-0.56694095 558.19436029 -0.56181782 552.84731238 -0.56500816 547.50014496 C-0.56970118 539.54934769 -0.55711057 531.59864061 -0.54117843 523.64786122 C-0.51484713 510.2681181 -0.50223507 496.88839568 -0.49761391 483.50862885 C-0.49299709 470.2730652 -0.48217708 457.0375302 -0.46318626 443.80197906 C-0.46200614 442.97709118 -0.46082601 442.15220329 -0.45961012 441.3023188 C-0.45358418 437.11263107 -0.4474485 432.92294352 -0.44127061 428.73325601 C-0.39778136 399.10635792 -0.36802854 369.47946053 -0.34643555 339.85253906 C-0.32543485 311.08169527 -0.29816133 282.31086852 -0.26245117 253.54003906 C-0.26135169 252.65221226 -0.26025222 251.76438546 -0.25911942 250.84965482 C-0.24807049 241.93322071 -0.23689463 233.01678677 -0.2256258 224.10035294 C-0.20267557 205.93874937 -0.18057216 187.77714479 -0.15898132 169.61553955 C-0.1579877 168.78061395 -0.15699409 167.94568835 -0.15597036 167.08546198 C-0.12557738 141.50918729 -0.09877147 115.93291059 -0.07551575 90.35662842 C-0.07452383 89.26804478 -0.07452383 89.26804478 -0.07351188 88.15746954 C-0.04679013 58.77164824 -0.02387311 29.38582372 0 0 Z " fill="#140B08" transform="translate(1030,1553)"/>
<path d="M0 0 C68.31 0 136.62 0 207 0 C207 300.96 207 601.92 207 912 C138.69 912 70.38 912 0 912 C0 611.04 0 310.08 0 0 Z " fill="#140B08" transform="translate(1965,1515)"/>
<path d="M0 0 C2.23606799 -0.00962164 4.47118144 -0.04066351 6.70703125 -0.07226562 C19.8935456 -0.17092968 32.17981639 1.88162832 44.64453125 6.36523438 C45.48040771 6.66308838 46.31628418 6.96094238 47.17749023 7.26782227 C65.66292848 14.09426426 80.59301635 24.74622019 94.76953125 38.24023438 C95.55199219 38.94664062 96.33445312 39.65304688 97.140625 40.38085938 C108.57503818 51.06113122 116.50584793 65.04115325 122.76953125 79.24023438 C123.0516748 79.87896484 123.33381836 80.51769531 123.62451172 81.17578125 C134.75395039 107.01549153 136.30382134 136.16875067 128.76953125 163.24023438 C128.56054199 164.00480957 128.35155273 164.76938477 128.13623047 165.55712891 C123.61333759 181.59899989 116.21254249 196.22458351 105.76953125 209.24023438 C104.96 210.27535156 104.15046875 211.31046875 103.31640625 212.37695312 C83.54727923 237.10400495 54.07110965 253.42196033 22.89453125 258.55273438 C-15.80556774 262.79327714 -51.01169844 254.06609245 -81.42919922 229.70117188 C-107.37826575 208.65492437 -123.69130393 178.12951726 -127.80078125 144.98242188 C-131.1558223 112.62658345 -123.61046358 80.5525989 -104.23046875 54.24023438 C-103.64007812 53.42683594 -103.0496875 52.6134375 -102.44140625 51.77539062 C-81.74780039 24.60952932 -51.79906932 6.24169039 -18.03125 0.71679688 C-12.03350312 -0.03523305 -6.0351866 0.0156352 0 0 Z " fill="#EB3D00" transform="translate(3217.23046875,2184.759765625)"/>
<path d="M0 0 C25.7042152 19.92905083 42.48496876 49.15816731 47.22607422 81.38647461 C48.26316882 90.12212989 48.32123425 98.90157101 48.375 107.6875 C48.3830365 108.41831787 48.391073 109.14913574 48.39935303 109.90209961 C48.51981933 124.3499443 46.8714376 138.43224736 41.8125 152.0625 C41.35967651 153.30990967 41.35967651 153.30990967 40.89770508 154.58251953 C29.26420697 185.78212403 8.56406037 209.33369307 -21.5390625 223.6875 C-47.615441 235.25130421 -77.92174392 239.09568653 -106 233 C-107.50240234 232.690625 -107.50240234 232.690625 -109.03515625 232.375 C-138.30630181 225.72761727 -165.13649581 207.59208384 -181.625 182.375 C-200.78313838 151.8923291 -208.90050887 111.96012258 -200.90625 76.578125 C-200.6071875 75.39734375 -200.308125 74.2165625 -200 73 C-199.7215625 71.77796875 -199.443125 70.5559375 -199.15625 69.296875 C-193.92915618 47.75764356 -183.97185215 29.27045877 -169 13 C-168.18660156 12.10410156 -167.37320312 11.20820312 -166.53515625 10.28515625 C-160.35733441 3.78692874 -153.51139884 -1.20129943 -146 -6 C-145.03191406 -6.6290625 -144.06382813 -7.258125 -143.06640625 -7.90625 C-100.78888936 -34.06438799 -39.07913273 -29.97310835 0 0 Z " fill="#FFFFFF" transform="translate(1686,2009)"/>
</svg>
